<svg width="190.000000" height="165.000000" viewBox="0 0 190 165" fill="none" xmlns="http://www.w3.org/2000/svg" xmlns:xlink="http://www.w3.org/1999/xlink">
	<desc>
			Created with Pixso.
	</desc>
	<defs/>
	<rect width="190.000000" height="165.000000" fill="#FFFFFF" fill-opacity="0"/>
	<circle cx="64.000000" cy="101.000000" r="64.000000" fill="#FF9900" fill-opacity="1.000000"/>
	<circle cx="64.000000" cy="101.000000" r="63.467743" stroke="#FF9900" stroke-opacity="1.000000" stroke-width="1.064516"/>
	<rect width="135.193542" height="135.193542" transform="translate(54.612793 0.000000)" fill="#FFFFFF" fill-opacity="0"/>
	<path d="M121.67 50.03C112.27 50.03 104.64 57.65 104.64 67.06C104.64 76.47 112.27 84.09 121.67 84.09C131.08 84.09 138.7 76.47 138.7 67.06C138.7 57.65 131.08 50.03 121.67 50.03ZM102.51 67.06C102.51 56.48 111.09 47.9 121.67 47.9C132.25 47.9 140.83 56.48 140.83 67.06C140.83 77.64 132.25 86.22 121.67 86.22C111.09 86.22 102.51 77.64 102.51 67.06Z" fill="#000000" fill-opacity="1.000000" fill-rule="evenodd"/>
	<path d="M122.2 2.13C119.28 2.13 116.47 3.29 114.41 5.36C112.34 7.43 111.18 10.23 111.18 13.16L111.18 14.19L111.18 14.19C111.17 16.35 110.53 18.45 109.34 20.25C108.15 22.04 106.46 23.45 104.48 24.3C104.35 24.36 104.21 24.39 104.06 24.39L103.8 24.39C101.83 25.2 99.67 25.44 97.58 25.06C95.4 24.67 93.4 23.63 91.82 22.09L91.81 22.08L91.45 21.72C90.43 20.69 89.21 19.88 87.87 19.32C86.53 18.77 85.1 18.48 83.65 18.48C82.2 18.48 80.76 18.77 79.42 19.32C78.09 19.88 76.87 20.69 75.84 21.72L75.84 21.72C74.82 22.74 74 23.96 73.45 25.3C72.89 26.63 72.61 28.07 72.61 29.52C72.61 30.97 72.89 32.4 73.45 33.74C74 35.08 74.82 36.3 75.84 37.32L76.22 37.69C77.76 39.27 78.79 41.28 79.19 43.45C79.58 45.61 79.32 47.84 78.44 49.85C77.67 51.91 76.3 53.7 74.51 54.99C72.71 56.28 70.56 56.99 68.34 57.05L68.32 57.05L67.77 57.05C64.85 57.05 62.04 58.21 59.97 60.28C57.9 62.35 56.74 65.15 56.74 68.08C56.74 71 57.9 73.81 59.97 75.87C62.04 77.94 64.85 79.1 67.77 79.1L68.8 79.1C70.96 79.11 73.06 79.75 74.86 80.94C76.65 82.13 78.06 83.82 78.91 85.79C79.8 87.81 80.07 90.05 79.67 92.22C79.28 94.39 78.24 96.4 76.7 97.97L76.69 97.98L76.33 98.35C75.3 99.37 74.49 100.59 73.93 101.93C73.38 103.26 73.09 104.7 73.09 106.15C73.09 107.6 73.38 109.03 73.93 110.37C74.49 111.71 75.3 112.93 76.33 113.95L76.33 113.95C77.35 114.98 78.57 115.79 79.91 116.35C81.25 116.9 82.68 117.19 84.13 117.19C85.58 117.19 87.02 116.9 88.35 116.35C89.69 115.79 90.91 114.98 91.93 113.95L92.31 113.58C93.88 112.04 95.89 111 98.06 110.61C100.22 110.22 102.45 110.48 104.46 111.36C106.53 112.13 108.32 113.49 109.6 115.29C110.89 117.09 111.61 119.24 111.66 121.46L111.66 121.48L111.66 122.03C111.66 124.95 112.82 127.76 114.89 129.82C116.96 131.89 119.76 133.05 122.69 133.05C125.61 133.05 128.42 131.89 130.49 129.82C132.56 127.76 133.72 124.95 133.72 122.03L133.72 121L133.72 120.99C133.73 118.84 134.36 116.73 135.55 114.94C136.74 113.14 138.43 111.74 140.41 110.89C142.42 110 144.66 109.73 146.83 110.12C149 110.52 151.01 111.55 152.59 113.1L152.6 113.11L152.96 113.47C153.98 114.49 155.2 115.31 156.54 115.86C157.88 116.42 159.31 116.7 160.76 116.7C162.21 116.7 163.65 116.42 164.99 115.86C166.32 115.31 167.54 114.49 168.56 113.47L168.57 113.47C169.59 112.44 170.4 111.23 170.96 109.89C171.51 108.55 171.8 107.11 171.8 105.67C171.8 104.22 171.51 102.78 170.96 101.44C170.4 100.1 169.59 98.89 168.57 97.86L168.19 97.49C166.65 95.91 165.62 93.91 165.22 91.74C164.83 89.57 165.09 87.33 165.98 85.31C166.83 83.33 168.24 81.65 170.03 80.46C171.83 79.27 173.94 78.63 176.09 78.62L176.09 78.62L176.64 78.62C179.56 78.62 182.37 77.46 184.44 75.39C186.51 73.32 187.67 70.52 187.67 67.59C187.67 64.67 186.51 61.86 184.44 59.79C182.37 57.72 179.56 56.56 176.64 56.56L175.61 56.56L175.61 56.56C173.45 56.55 171.35 55.92 169.55 54.73C167.75 53.54 166.35 51.85 165.5 49.87C165.44 49.74 165.41 49.59 165.41 49.45L165.41 49.18C164.59 47.22 164.36 45.06 164.74 42.96C165.13 40.79 166.17 38.79 167.71 37.21L167.72 37.2L168.08 36.84C169.11 35.81 169.92 34.6 170.48 33.26C171.03 31.92 171.32 30.48 171.32 29.03C171.32 27.59 171.03 26.15 170.48 24.81C169.92 23.47 169.11 22.26 168.08 21.23L168.08 21.23C167.06 20.21 165.84 19.39 164.5 18.84C163.16 18.28 161.73 18 160.28 18C158.83 18 157.39 18.28 156.05 18.84C154.72 19.39 153.5 20.21 152.47 21.23L152.1 21.6C150.53 23.15 148.52 24.18 146.35 24.58C144.18 24.97 141.94 24.7 139.92 23.81C137.95 22.97 136.26 21.56 135.07 19.76C133.88 17.97 133.24 15.86 133.23 13.71L133.23 13.7L133.23 13.16C133.23 10.23 132.07 7.43 130 5.36C127.94 3.29 125.13 2.13 122.2 2.13ZM112.9 3.85C115.37 1.38 118.71 0 122.2 0C125.7 0 129.04 1.38 131.51 3.85C133.98 6.32 135.37 9.67 135.37 13.16L135.37 13.7C135.37 13.7 135.37 13.7 135.37 13.7C135.38 15.44 135.89 17.14 136.85 18.58C137.81 20.03 139.17 21.17 140.77 21.85L140.78 21.86C142.41 22.58 144.22 22.79 145.97 22.47C147.72 22.16 149.33 21.32 150.61 20.08C150.61 20.08 150.61 20.08 150.61 20.08L150.96 19.72C152.19 18.5 153.64 17.53 155.24 16.87C156.84 16.2 158.55 15.86 160.28 15.86C162.01 15.86 163.72 16.2 165.32 16.87C166.92 17.53 168.37 18.5 169.59 19.72C170.81 20.94 171.79 22.4 172.45 23.99C173.11 25.59 173.45 27.31 173.45 29.03C173.45 30.76 173.11 32.48 172.45 34.08C171.79 35.67 170.81 37.13 169.59 38.35L169.24 38.7C169.23 38.7 169.23 38.71 169.23 38.71C167.99 39.98 167.16 41.59 166.84 43.34C166.52 45.1 166.73 46.9 167.45 48.53C167.51 48.67 167.54 48.82 167.54 48.96L167.54 49.22C168.24 50.74 169.34 52.03 170.73 52.95C172.18 53.91 173.87 54.42 175.61 54.43L176.64 54.43C180.13 54.43 183.48 55.82 185.95 58.28C188.41 60.75 189.8 64.1 189.8 67.59C189.8 71.08 188.41 74.43 185.95 76.9C183.48 79.37 180.13 80.76 176.64 80.76L176.1 80.76C176.1 80.76 176.1 80.76 176.1 80.76C174.36 80.76 172.66 81.28 171.21 82.24C169.76 83.2 168.63 84.56 167.94 86.16L167.94 86.17C167.22 87.8 167 89.6 167.32 91.36C167.64 93.11 168.47 94.72 169.72 95.99C169.72 95.99 169.72 96 169.72 96L170.07 96.35C171.3 97.57 172.27 99.03 172.93 100.62C173.59 102.22 173.93 103.94 173.93 105.67C173.93 107.4 173.59 109.11 172.93 110.71C172.27 112.3 171.3 113.76 170.07 114.98C168.85 116.2 167.4 117.17 165.8 117.83C164.2 118.5 162.49 118.84 160.76 118.84C159.03 118.84 157.32 118.5 155.72 117.83C154.12 117.17 152.67 116.2 151.45 114.98L151.09 114.62C151.09 114.62 151.09 114.62 151.09 114.62C149.82 113.38 148.2 112.54 146.45 112.23C144.7 111.91 142.89 112.12 141.26 112.84L141.25 112.85C139.66 113.53 138.29 114.67 137.33 116.12C136.37 117.56 135.86 119.26 135.85 121C135.85 121 135.85 121 135.85 121L135.85 122.03C135.85 125.52 134.47 128.86 132 131.33C129.53 133.8 126.18 135.19 122.69 135.19C119.2 135.19 115.85 133.8 113.38 131.33C110.91 128.86 109.53 125.52 109.53 122.03L109.53 121.49C109.48 119.71 108.9 117.98 107.86 116.53C106.82 115.08 105.37 113.97 103.69 113.35C103.68 113.35 103.67 113.34 103.66 113.34C103.65 113.33 103.64 113.33 103.63 113.32C102 112.61 100.19 112.39 98.44 112.71C96.69 113.03 95.08 113.86 93.8 115.1C93.8 115.1 93.8 115.11 93.8 115.11L93.44 115.46C92.22 116.69 90.77 117.66 89.17 118.32C87.57 118.98 85.86 119.32 84.13 119.32C82.4 119.32 80.69 118.98 79.09 118.32C77.49 117.66 76.04 116.69 74.82 115.46C73.59 114.24 72.62 112.79 71.96 111.19C71.3 109.59 70.96 107.88 70.96 106.15C70.96 104.42 71.3 102.71 71.96 101.11C72.62 99.51 73.6 98.06 74.82 96.84L75.17 96.48C75.17 96.48 75.18 96.48 75.18 96.48C76.42 95.2 77.25 93.59 77.57 91.84C77.89 90.09 77.67 88.28 76.96 86.65L76.95 86.64C76.27 85.04 75.13 83.68 73.68 82.72C72.23 81.76 70.53 81.25 68.8 81.24C68.8 81.24 68.8 81.24 68.8 81.24L67.77 81.24C64.28 81.24 60.93 79.85 58.46 77.38C55.99 74.92 54.61 71.57 54.61 68.08C54.61 64.58 55.99 61.24 58.46 58.77C60.93 56.3 64.28 54.91 67.77 54.91L68.3 54.91C70.09 54.87 71.82 54.29 73.27 53.25C74.72 52.21 75.83 50.76 76.45 49.08C76.45 49.06 76.46 49.04 76.47 49.02C77.19 47.39 77.41 45.58 77.09 43.83C76.77 42.08 75.94 40.46 74.69 39.19L74.34 38.83C73.11 37.61 72.14 36.16 71.48 34.56C70.82 32.96 70.47 31.25 70.47 29.52C70.47 27.79 70.82 26.08 71.48 24.48C72.14 22.88 73.11 21.43 74.34 20.21C75.56 18.98 77.01 18.01 78.61 17.35C80.21 16.69 81.92 16.35 83.65 16.35C85.38 16.35 87.09 16.69 88.69 17.35C90.29 18.01 91.74 18.98 92.96 20.21L93.32 20.56C94.59 21.81 96.21 22.64 97.96 22.96C99.71 23.28 101.52 23.06 103.15 22.34C103.28 22.28 103.43 22.25 103.58 22.25L103.84 22.25C105.35 21.56 106.64 20.46 107.56 19.07C108.52 17.62 109.03 15.92 109.04 14.18L109.04 13.16C109.04 9.67 110.43 6.32 112.9 3.85Z" fill="#000000" fill-opacity="1.000000" fill-rule="evenodd"/>
</svg>
