<svg width="190.000000" height="165.000000" viewBox="0 0 190 165" fill="none" xmlns="http://www.w3.org/2000/svg" xmlns:xlink="http://www.w3.org/1999/xlink">
	<desc>
			Created with Pixso.
	</desc>
	<defs>
		<clipPath id="clip406480_4613">
			<rect width="119.000000" height="132.000000" transform="translate(71.000000 0.000000)" fill="white" fill-opacity="0"/>
		</clipPath>
	</defs>
	<rect width="190.000000" height="165.000000" fill="#FFFFFF" fill-opacity="0"/>
	<circle cx="60.000000" cy="105.000000" r="60.000000" fill="#FF9900" fill-opacity="1.000000"/>
	<rect width="119.000000" height="132.000000" transform="translate(71.000000 0.000000)" fill="#FFFFFF" fill-opacity="0"/>
	<g clip-path="url(#clip406480_4613)">
		<path d="M101.13 15.49C101.39 15.02 101.99 14.86 102.46 15.13L159.51 48.17C159.97 48.44 160.13 49.04 159.87 49.5C159.6 49.97 159 50.13 158.53 49.86L101.48 16.82C101.02 16.55 100.86 15.95 101.13 15.49Z" fill="#000000" fill-opacity="1.000000" fill-rule="evenodd"/>
		<path d="M123.5 1.87C125.63 0.64 128.04 0 130.5 0C132.95 0 135.37 0.64 137.49 1.87C137.49 1.87 137.5 1.87 137.5 1.87L183 27.88C185.12 29.1 186.89 30.87 188.12 33C189.35 35.12 189.99 37.53 190 39.99L190 92C189.99 94.46 189.35 96.87 188.12 98.99C186.89 101.12 185.12 102.89 183 104.11L182.99 104.12L137.5 130.12C137.5 130.12 137.49 130.12 137.49 130.12C135.37 131.35 132.95 132 130.5 132C128.04 132 125.62 131.35 123.5 130.12C123.5 130.12 123.5 130.12 123.5 130.12L78 104.12L78 104.11C75.87 102.89 74.1 101.12 72.87 98.99C71.65 96.87 71 94.46 71 92L71 39.99C71 37.53 71.65 35.12 72.87 33C74.1 30.87 75.87 29.1 78 27.88L78 27.87L123.5 1.87C123.5 1.87 123.5 1.87 123.5 1.87ZM130.5 2C128.39 2 126.32 2.55 124.5 3.6L124.49 3.61L79 29.61C78.99 29.61 78.99 29.61 78.99 29.61C77.17 30.66 75.66 32.17 74.61 34C73.55 35.82 73 37.89 73 39.99L73 92C73 94.1 73.55 96.17 74.61 97.99C75.66 99.81 77.17 101.33 78.99 102.38C78.99 102.38 78.99 102.38 79 102.38L124.5 128.39C126.32 129.44 128.39 130 130.5 130C132.6 130 134.67 129.44 136.5 128.39L136.5 128.38L182 102.38C182 102.38 182 102.38 182 102.38C183.82 101.33 185.33 99.81 186.38 97.99C187.44 96.17 187.99 94.1 188 92L188 39.99C187.99 37.89 187.44 35.82 186.38 34C185.33 32.17 183.82 30.66 182 29.61C182 29.61 182 29.61 182 29.61L136.5 3.61L136.5 3.6C134.67 2.55 132.6 2 130.5 2Z" fill="#000000" fill-opacity="1.000000" fill-rule="evenodd"/>
		<path d="M73.13 33.48C73.4 33.02 74 32.86 74.48 33.13L130 64.89L185.51 33.13C185.99 32.86 186.59 33.02 186.86 33.48C187.14 33.95 186.97 34.55 186.5 34.82L130.49 66.86C130.18 67.04 129.81 67.04 129.5 66.86L73.49 34.82C73.02 34.55 72.85 33.95 73.13 33.48Z" fill="#000000" fill-opacity="1.000000" fill-rule="evenodd"/>
		<path d="M130 65C130.55 65 131 65.43 131 65.97L131 130.02C131 130.56 130.55 131 130 131C129.44 131 129 130.56 129 130.02L129 65.97C129 65.43 129.44 65 130 65Z" fill="#000000" fill-opacity="1.000000" fill-rule="evenodd"/>
	</g>
</svg>
