<svg width="224.280762" height="72.000000" viewBox="0 0 224.281 72" fill="none" xmlns="http://www.w3.org/2000/svg" xmlns:xlink="http://www.w3.org/1999/xlink">
	<desc>
			Created with Pixso.
	</desc>
	<defs/>
	<rect width="224.000000" height="72.000000" transform="translate(0.280762 0.000000)" fill="#FFFFFF" fill-opacity="0"/>
	<path d="M69.81 36.29C68.71 36.92 67.38 37.42 65.81 37.78C64.24 38.15 62.61 38.33 60.92 38.33C58.63 38.33 56.69 38.06 55.08 37.51Q52.69 36.68 51.47 35.22C50.67 34.24 50.28 33.11 50.28 31.82Q50.28 30.7 50.69 29.75Q50.89 29.28 51.19 28.86Q51.3 28.7 51.43 28.55Q52.31 27.49 53.73 26.87Q52.83 26.41 52.23 25.69L52.23 25.69Q51.99 25.41 51.8 25.09Q51.58 24.68 51.43 24.24L51.43 24.24Q51.16 23.44 51.16 22.56Q51.16 21.82 51.35 21.14Q51.62 20.17 52.26 19.32Q53.39 17.85 55.69 16.96Q57.98 16.07 61.34 16.07Q63.03 16.07 64.67 16.33L64.67 16.33Q65.09 16.39 65.5 16.47Q67.55 16.87 69.11 17.54L67.46 22.07Q65.6 21.25 63.66 20.96Q62.64 20.81 61.59 20.81Q59.42 20.81 58.35 21.39Q57.64 21.76 57.4 22.32Q57.28 22.61 57.28 22.95Q57.28 23.55 57.55 23.95Q58.14 24.79 59.94 24.79L65.99 24.79L65.99 29.41L59.54 29.41Q57.98 29.41 57.19 29.93Q56.83 30.15 56.63 30.47Q56.39 30.86 56.39 31.39Q56.39 31.71 56.5 31.99Q56.75 32.61 57.55 33.01C58.33 33.4 59.53 33.59 61.16 33.59C62.32 33.59 63.52 33.44 64.74 33.14C65.98 32.81 67.06 32.37 67.98 31.82L69.81 36.29ZM170.96 21.33L170.96 34.88C170.96 37.96 170.12 40.26 168.45 41.79C166.78 43.34 164.37 44.11 161.24 44.11C159.6 44.11 158.08 43.93 156.65 43.56C155.22 43.2 154.01 42.66 153.01 41.94L155.12 37.88C155.79 38.43 156.64 38.85 157.66 39.16C158.7 39.49 159.72 39.65 160.72 39.65C162.24 39.65 163.37 39.31 164.08 38.64C164.79 37.97 165.15 36.97 165.15 35.64L165.15 35.09C164.03 36.4 162.39 37.05 160.23 37.05C158.76 37.05 157.4 36.72 156.16 36.07C154.92 35.4 153.93 34.46 153.19 33.26Q153.05 33.01 152.92 32.76Q152.09 31.11 152.09 29.04Q152.09 27.02 152.9 25.41Q153.03 25.14 153.19 24.88Q153.8 23.86 154.65 23.11Q155.33 22.5 156.16 22.07C157.4 21.39 158.76 21.06 160.23 21.06Q162.92 21.06 164.52 22.38Q165.03 22.8 165.42 23.35L165.42 21.33L170.96 21.33ZM85.4 29.22C87.29 29.85 88.24 31.16 88.24 33.14C88.24 34.62 87.66 35.8 86.5 36.65C85.34 37.49 83.62 37.91 81.36 37.91L72.04 37.91L72.04 21.33L80.93 21.33C83.09 21.33 84.77 21.71 85.95 22.46C87.15 23.22 87.75 24.28 87.75 25.64Q87.75 26.52 87.43 27.24Q87.31 27.51 87.14 27.75C86.73 28.37 86.15 28.86 85.4 29.22ZM98.94 32L96.99 32L96.99 37.91L91.18 37.91L91.18 21.33L96.99 21.33L96.99 27.45L99.07 27.45L103.13 21.33L109.28 21.33L103.71 29.28L109.65 37.91L102.8 37.91L98.94 32ZM128.45 21.33L128.45 37.91L122.64 37.91L122.64 25.95L118.45 25.95L118.33 28.49C118.25 30.65 118.03 32.43 117.69 33.84C117.34 35.25 116.77 36.35 115.97 37.14Q115.81 37.3 115.63 37.44Q114.5 38.3 112.7 38.3C111.99 38.3 111.05 38.17 109.89 37.91L110.13 33.17C110.5 33.21 110.75 33.23 110.87 33.23C111.5 33.23 111.98 33.02 112.31 32.62C112.63 32.21 112.86 31.67 112.98 31C113.1 30.3 113.18 29.39 113.22 28.24L113.47 21.33L128.45 21.33ZM149.42 21.33L149.42 37.91L143.88 37.91L143.88 36.16C143.27 36.82 142.54 37.32 141.68 37.66Q141.51 37.73 141.35 37.79Q140.24 38.18 138.99 38.18C136.83 38.18 135.11 37.55 133.82 36.29Q131.93 34.39 131.93 30.6L131.93 21.33L137.74 21.33L137.74 29.65C137.74 32.04 138.66 33.23 140.52 33.23C141.44 33.23 142.18 32.91 142.75 32.28C143.32 31.63 143.61 30.64 143.61 29.31L143.61 21.33L149.42 21.33ZM77.23 28L80.41 28C81.76 28 82.43 27.5 82.43 26.5C82.43 25.54 81.76 25.06 80.41 25.06L77.23 25.06L77.23 28ZM161.6 32.43C162.64 32.43 163.5 32.12 164.17 31.49C164.86 30.85 165.21 30.04 165.21 29.04C165.21 28.04 164.87 27.23 164.2 26.62C163.53 25.99 162.66 25.68 161.6 25.68C160.54 25.68 159.67 25.99 158.97 26.62C158.3 27.23 157.96 28.04 157.96 29.04C157.96 30.04 158.31 30.85 159 31.49C159.7 32.12 160.56 32.43 161.6 32.43ZM80.84 34.15C82.25 34.15 82.95 33.64 82.95 32.62Q82.95 32.07 82.69 31.72Q82.22 31.09 80.9 31.09L77.23 31.09L77.23 34.15L80.84 34.15ZM59.7 46L59.7 55.98L56.91 55.98L56.91 48.24L53.12 48.24L53.12 55.98L50.34 55.98L50.34 46L59.7 46ZM65.81 48.13C66.66 48.13 67.39 48.29 68.02 48.61C68.65 48.94 69.13 49.4 69.46 50.01C69.8 50.61 69.97 51.31 69.97 52.12C69.97 52.92 69.82 53.62 69.5 54.23C69.19 54.83 68.75 55.29 68.18 55.63Q68.17 55.63 68.16 55.64Q67.31 56.11 66.2 56.11C65.31 56.11 64.62 55.84 64.12 55.3L64.12 58.75L61.41 58.75L61.41 52.15Q61.41 51.06 61.86 50.2L61.86 50.2Q61.9 50.12 61.95 50.04C62.31 49.43 62.82 48.96 63.49 48.63C64.15 48.3 64.93 48.13 65.81 48.13ZM75.09 56.11C74.26 56.11 73.52 55.94 72.85 55.6C72.19 55.26 71.66 54.78 71.28 54.17C70.91 53.56 70.73 52.88 70.73 52.11C70.73 51.35 70.91 50.66 71.28 50.05C71.66 49.45 72.18 48.97 72.84 48.64C73.5 48.3 74.25 48.13 75.09 48.13C75.93 48.13 76.68 48.3 77.34 48.64C78.01 48.97 78.53 49.45 78.9 50.05C79.27 50.65 79.45 51.34 79.45 52.11Q79.45 52.98 79.13 53.72L79.13 53.72Q79.03 53.96 78.9 54.17C78.53 54.78 78.01 55.26 77.34 55.6C76.68 55.94 75.93 56.11 75.09 56.11ZM84.81 54.04C85.18 54.04 85.5 53.99 85.77 53.89C86.04 53.78 86.32 53.61 86.6 53.37L88.01 54.86C87.28 55.69 86.18 56.11 84.73 56.11C83.83 56.11 83.03 55.94 82.35 55.6C81.66 55.26 81.13 54.78 80.75 54.17C80.38 53.56 80.19 52.88 80.19 52.11C80.19 51.35 80.38 50.67 80.75 50.07C81.12 49.46 81.63 48.98 82.28 48.64C82.93 48.3 83.66 48.13 84.47 48.13Q85.44 48.13 86.26 48.48Q86.4 48.53 86.52 48.6C87.15 48.9 87.65 49.35 88.02 49.95C88.39 50.54 88.58 51.25 88.58 52.06L83.06 53.12C83.35 53.74 83.94 54.04 84.81 54.04ZM109.44 48.13C110.39 48.13 111.15 48.41 111.71 48.98C112.28 49.55 112.56 50.41 112.56 51.56L112.56 55.98L109.85 55.98L109.85 52.01C109.85 51.46 109.75 51.07 109.54 50.81C109.34 50.55 109.06 50.42 108.69 50.42C108.28 50.42 107.95 50.57 107.7 50.85C107.46 51.14 107.33 51.57 107.33 52.15L107.33 55.98L104.62 55.98L104.62 52.01C104.62 50.95 104.23 50.42 103.45 50.42C103.04 50.42 102.7 50.57 102.46 50.85C102.21 51.14 102.09 51.57 102.09 52.15L102.09 55.98L99.38 55.98L99.38 48.26L101.96 48.26L101.96 49.07C102.24 48.76 102.58 48.52 102.97 48.37C103.37 48.21 103.8 48.13 104.27 48.13C104.81 48.13 105.29 48.23 105.72 48.43C106.15 48.63 106.5 48.93 106.76 49.34C107.07 48.95 107.45 48.65 107.92 48.44C108.38 48.23 108.89 48.13 109.44 48.13ZM141.03 54.04C141.4 54.04 141.72 53.99 141.98 53.89C142.26 53.78 142.53 53.61 142.81 53.37L144.22 54.86C143.49 55.69 142.4 56.11 140.94 56.11C140.04 56.11 139.25 55.94 138.56 55.6C137.88 55.26 137.35 54.78 136.97 54.17C136.59 53.56 136.41 52.88 136.41 52.11C136.41 51.35 136.59 50.67 136.97 50.07C137.34 49.46 137.84 48.98 138.49 48.64C139.15 48.3 139.88 48.13 140.69 48.13C141.44 48.13 142.12 48.29 142.74 48.6C143.37 48.9 143.87 49.35 144.24 49.95C144.61 50.54 144.79 51.25 144.79 52.06L139.27 53.12C139.57 53.74 140.15 54.04 141.03 54.04ZM154.11 56.11C153.25 56.11 152.49 55.94 151.81 55.6C151.14 55.26 150.61 54.78 150.23 54.17C149.86 53.56 149.67 52.88 149.67 52.11C149.67 51.34 149.86 50.65 150.23 50.05C150.61 49.45 151.14 48.97 151.81 48.64C152.49 48.3 153.25 48.13 154.11 48.13C154.98 48.13 155.74 48.32 156.38 48.7C157.01 49.07 157.46 49.59 157.73 50.25L155.63 51.32C155.28 50.63 154.77 50.28 154.1 50.28Q153.66 50.28 153.31 50.46Q153.08 50.57 152.88 50.77C152.57 51.09 152.41 51.54 152.41 52.11C152.41 52.69 152.57 53.14 152.88 53.47C153.21 53.8 153.61 53.96 154.1 53.96C154.77 53.96 155.28 53.61 155.63 52.92L157.73 53.99C157.46 54.65 157.01 55.18 156.38 55.56C155.74 55.93 154.98 56.11 154.11 56.11ZM172.51 56.11C171.66 56.11 170.89 55.94 170.22 55.6C169.54 55.26 169.02 54.78 168.64 54.17C168.27 53.56 168.08 52.88 168.08 52.11C168.08 51.34 168.27 50.65 168.64 50.05C169.02 49.45 169.54 48.97 170.22 48.64C170.89 48.3 171.66 48.13 172.51 48.13C173.39 48.13 174.14 48.32 174.78 48.7C175.42 49.07 175.87 49.59 176.13 50.25L174.04 51.32C173.69 50.63 173.17 50.28 172.5 50.28Q172.06 50.28 171.71 50.46Q171.48 50.57 171.29 50.77C170.97 51.09 170.82 51.54 170.82 52.11C170.82 52.69 170.97 53.14 171.29 53.47C171.61 53.8 172.01 53.96 172.5 53.96C173.17 53.96 173.69 53.61 174.04 52.92L176.13 53.99C175.87 54.65 175.42 55.18 174.78 55.56C174.14 55.93 173.39 56.11 172.51 56.11ZM187.33 48.13C188.28 48.13 189.04 48.41 189.6 48.98C190.17 49.55 190.45 50.41 190.45 51.56L190.45 55.98L187.74 55.98L187.74 52.01C187.74 51.46 187.64 51.07 187.43 50.81C187.23 50.55 186.95 50.42 186.58 50.42C186.17 50.42 185.84 50.57 185.59 50.85C185.35 51.14 185.22 51.57 185.22 52.15L185.22 55.98L182.51 55.98L182.51 52.01C182.51 50.95 182.12 50.42 181.34 50.42C180.93 50.42 180.59 50.57 180.35 50.85C180.1 51.14 179.98 51.57 179.98 52.15L179.98 55.98L177.27 55.98L177.27 48.26L179.85 48.26L179.85 49.07C180.13 48.76 180.47 48.52 180.86 48.37C181.26 48.21 181.69 48.13 182.16 48.13C182.7 48.13 183.18 48.23 183.61 48.43C184.04 48.63 184.39 48.93 184.65 49.34C184.96 48.95 185.34 48.65 185.81 48.44C186.27 48.23 186.78 48.13 187.33 48.13ZM196.18 54.04C196.56 54.04 196.87 53.99 197.14 53.89C197.41 53.78 197.69 53.61 197.97 53.37L199.38 54.86C198.65 55.69 197.55 56.11 196.1 56.11C195.2 56.11 194.4 55.94 193.72 55.6C193.03 55.26 192.5 54.78 192.12 54.17Q191.99 53.96 191.89 53.72Q191.57 52.98 191.57 52.11C191.57 51.35 191.75 50.67 192.12 50.07C192.49 49.46 193 48.98 193.65 48.64C194.3 48.3 195.03 48.13 195.84 48.13C196.59 48.13 197.28 48.29 197.89 48.6C198.52 48.9 199.02 49.35 199.39 49.95C199.76 50.54 199.95 51.25 199.95 52.06L194.43 53.12C194.73 53.74 195.31 54.04 196.18 54.04ZM93.49 53.23L92.58 53.23L92.58 55.98L89.87 55.98L89.87 48.26L92.58 48.26L92.58 51.11L93.55 51.11L95.44 48.26L98.31 48.26L95.71 51.96L98.48 55.98L95.29 55.98L93.49 53.23ZM114.2 48.26L116.9 48.26L116.9 51.12L119.68 51.12L119.68 48.26L122.39 48.26L122.39 55.98L119.68 55.98L119.68 53.28L116.9 53.28L116.9 55.98L114.2 55.98L114.2 48.26ZM127.89 56.21C125.33 56.21 124.06 55.11 124.06 52.92L124.06 48.26L126.75 48.26L126.75 50.71C126.95 50.58 127.22 50.47 127.55 50.38C127.89 50.3 128.28 50.25 128.72 50.25C129.67 50.25 130.41 50.5 130.96 50.98C131.5 51.46 131.77 52.16 131.77 53.1C131.77 54.12 131.42 54.9 130.71 55.43C130.02 55.95 129.08 56.21 127.89 56.21ZM132.41 48.26L135.12 48.26L135.12 55.98L132.41 55.98L132.41 48.26ZM166.82 48.26L166.82 55.98L164.24 55.98L164.24 55.17C163.95 55.48 163.61 55.71 163.21 55.87C162.82 56.03 162.4 56.11 161.96 56.11C160.95 56.11 160.14 55.82 159.55 55.23C158.96 54.64 158.66 53.76 158.66 52.58L158.66 48.26L161.37 48.26L161.37 52.13C161.37 53.25 161.8 53.8 162.67 53.8C163.1 53.8 163.44 53.66 163.71 53.36C163.98 53.06 164.11 52.6 164.11 51.98L164.11 48.26L166.82 48.26ZM208.74 55.98L208.74 51.92L206.76 55.3L205.6 55.3L203.68 51.86L203.68 55.98L201.24 55.98L201.24 48.26L204.09 48.26L206.24 52.29L208.61 48.26L211.16 48.26L211.18 55.98L208.74 55.98ZM216.68 56.21C214.12 56.21 212.85 55.11 212.85 52.92L212.85 48.26L215.54 48.26L215.54 50.71Q215.84 50.51 216.34 50.38C216.68 50.3 217.07 50.25 217.51 50.25C218.46 50.25 219.2 50.5 219.75 50.98C220.29 51.46 220.56 52.16 220.56 53.1C220.56 54.12 220.21 54.9 219.5 55.43C218.81 55.95 217.87 56.21 216.68 56.21ZM221.2 48.26L223.91 48.26L223.91 55.98L221.2 55.98L221.2 48.26ZM84.49 50.05C84.02 50.05 83.64 50.2 83.35 50.5C83.05 50.78 82.88 51.19 82.85 51.74L85.98 51.12C85.89 50.8 85.71 50.54 85.44 50.35C85.17 50.15 84.86 50.05 84.49 50.05ZM140.7 50.05C140.23 50.05 139.85 50.2 139.56 50.5C139.27 50.78 139.1 51.19 139.06 51.74L142.2 51.12C142.1 50.8 141.92 50.54 141.66 50.35C141.39 50.15 141.07 50.05 140.7 50.05ZM195.86 50.05C195.39 50.05 195.01 50.2 194.72 50.5C194.42 50.78 194.26 51.19 194.22 51.74L197.35 51.12C197.26 50.8 197.08 50.54 196.81 50.35C196.55 50.15 196.23 50.05 195.86 50.05ZM65.68 53.96C66.17 53.96 66.56 53.79 66.85 53.46C67.16 53.12 67.31 52.67 67.31 52.12C67.31 51.57 67.16 51.13 66.85 50.79C66.56 50.45 66.17 50.28 65.68 50.28C65.2 50.28 64.81 50.45 64.51 50.79Q64.47 50.85 64.43 50.9Q64.07 51.38 64.07 52.12C64.07 52.68 64.22 53.13 64.5 53.46C64.8 53.79 65.19 53.96 65.68 53.96ZM75.09 53.96C75.57 53.96 75.96 53.8 76.26 53.47C76.56 53.14 76.72 52.69 76.72 52.11C76.72 51.54 76.56 51.09 76.26 50.77C75.96 50.44 75.57 50.28 75.09 50.28C74.61 50.28 74.23 50.44 73.92 50.77C73.62 51.09 73.46 51.54 73.46 52.11C73.46 52.69 73.62 53.14 73.92 53.47C74.23 53.8 74.61 53.96 75.09 53.96ZM127.89 54.36C128.26 54.36 128.54 54.25 128.73 54.03C128.92 53.81 129.02 53.52 129.02 53.16C129.02 52.81 128.92 52.53 128.73 52.33C128.54 52.13 128.27 52.03 127.91 52.03C127.65 52.03 127.42 52.08 127.22 52.18C127.02 52.27 126.86 52.4 126.75 52.56L126.75 53.16C126.75 53.53 126.85 53.83 127.04 54.04C127.23 54.25 127.51 54.36 127.89 54.36ZM216.68 54.36C217.05 54.36 217.33 54.25 217.52 54.03C217.71 53.81 217.81 53.52 217.81 53.16C217.81 52.81 217.71 52.53 217.52 52.33C217.33 52.13 217.06 52.03 216.69 52.03C216.44 52.03 216.21 52.08 216.01 52.18C215.81 52.27 215.65 52.4 215.54 52.56L215.54 53.16C215.54 53.53 215.64 53.83 215.83 54.04C216.02 54.25 216.3 54.36 216.68 54.36Z" fill="#FFFFFF" fill-opacity="1.000000" fill-rule="evenodd"/>
	<rect width="38.117649" height="72.000000" fill="#FFFFFF" fill-opacity="0"/>
	<path d="M16.63 24.27L8.62 42.71L1.29 42.71L1.29 44.31L7.79 44.31C7.79 44.31 2.22 56.71 1.29 59.03C0.36 61.36 3.15 62.44 3.15 62.44L0 71.99L0.46 71.99L12.86 44.31L17.87 44.31L17.87 46.38C17.81 46.57 17.94 46.92 18.8 47.02L18.8 47.05C18.89 47.05 18.97 47.05 19.05 47.04C19.13 47.05 19.22 47.05 19.31 47.05L19.31 47.02C20.17 46.92 20.3 46.57 20.24 46.38L20.24 44.31L25.25 44.31L37.65 71.99L38.11 71.99L34.96 62.44C34.96 62.44 37.75 61.36 36.82 59.03C35.89 56.71 30.31 44.31 30.31 44.31L36.82 44.31L36.82 42.71L29.49 42.71L21.48 24.27L16.63 24.27ZM19.05 30.09L13.63 42.71L17.87 42.71L17.87 40.33C17.87 39.85 18.55 39.74 19.05 39.75C19.56 39.74 20.24 39.85 20.24 40.33L20.24 42.71L24.48 42.71L19.05 30.09Z" fill="#FF9900" fill-opacity="1.000000" fill-rule="evenodd"/>
	<path d="M20.66 0L17.56 0L17.56 7.78C13.62 8.51 10.64 11.96 10.64 16.11C10.64 20.79 14.43 24.58 19.11 24.58C23.78 24.58 27.58 20.79 27.58 16.11C27.58 11.96 24.59 8.51 20.66 7.78L20.66 0ZM24.58 16.11C24.58 19.13 22.13 21.58 19.11 21.58C16.08 21.58 13.63 19.13 13.63 16.11C13.63 13.09 16.08 10.63 19.11 10.63C22.13 10.63 24.58 13.09 24.58 16.11Z" fill="#FFFFFF" fill-opacity="1.000000" fill-rule="evenodd"/>
</svg>
